<?xml version="1.0" encoding="iso-8859-1"?>
<!-- Uploaded to: SVG Repo, www.svgrepo.com, Generator: SVG Repo Mixer Tools -->
<!DOCTYPE svg PUBLIC "-//W3C//DTD SVG 1.1//EN" "http://www.w3.org/Graphics/SVG/1.1/DTD/svg11.dtd">
<svg fill="#000000" version="1.1" id="Capa_1" xmlns="http://www.w3.org/2000/svg" xmlns:xlink="http://www.w3.org/1999/xlink" 
	 width="800px" height="800px" viewBox="0 0 402.149 402.148"
	 xml:space="preserve">
<g>
	<g>
		<g>
			<path d="M201.178,77.143h-0.208c-57.842,0-104.896,47.058-104.896,104.891c0,38.493,20.459,72.314,36.902,99.492
				c10.582,17.491,20.573,34.019,20.573,45.049l0.53,13.859c0,0.216,0,0.288,0,0.273c0,0.128,0,0.307,0,0.559
				c-0.868,1.572-1.371,3.374-1.371,5.292c0,4.137,5.782,5.938,5.646,9.627c-0.149,3.69-11.956,5.743-11.956,12.453
				c0,6.895,12.666,8.225,12.666,12.484c0,4.249-6.356,5.562-6.356,9.986c0,6.097,4.94,11.039,11.042,11.039h74.648
				c6.102,0,11.042-4.942,11.042-11.039c0-9.235-31.026-10.327-48.058-10.229c18.567-0.653,54.366-3.112,54.366-12.243
				c0-12.322-68.712-12.451-68.712-12.451s62.403,0.122,62.403-9.628c0-1.918-0.504-3.72-1.37-5.292c0-0.252,0-0.431,0-0.559
				c0-0.18,0-0.261,0-0.28l0.528-13.854c0-10.843,9.335-26.025,20.144-43.604c16.632-27.047,37.332-60.71,37.332-100.937
				C306.074,124.201,259.02,77.143,201.178,77.143z M241.466,148.198l-34.498,60.146l30.294,0.002c1.058,0,2.026,0.596,2.511,1.535
				c0.481,0.937,0.399,2.072-0.216,2.926l-52.35,73.163c-0.548,0.765-1.414,1.179-2.297,1.179c-0.466,0-0.933-0.111-1.366-0.353
				c-1.254-0.695-1.789-2.216-1.246-3.538l23.614-57.553l-30.894-0.094c-0.964-0.009-1.858-0.502-2.376-1.313
				c-0.515-0.814-0.581-1.837-0.17-2.707l35.549-75.999c0.466-0.989,1.462-1.623,2.557-1.623h28.441
				c1.006,0,1.938,0.534,2.439,1.403C241.965,146.25,241.967,147.322,241.466,148.198z"/>
			<path d="M260.13,72.353c2.105,1.018,4.329,1.5,6.521,1.5c5.572,0,10.926-3.12,13.515-8.474l21.203-43.846
				c3.605-7.458,0.483-16.428-6.975-20.034c-7.456-3.605-16.429-0.484-20.033,6.974l-21.203,43.846
				C249.551,59.777,252.672,68.747,260.13,72.353z"/>
			<path d="M121.982,65.38c2.589,5.354,7.942,8.474,13.515,8.474c2.19,0,4.416-0.482,6.52-1.5
				c7.458-3.606,10.58-12.576,6.974-20.034L127.789,8.474c-3.606-7.457-12.576-10.58-20.034-6.974s-10.58,12.576-6.974,20.034
				L121.982,65.38z"/>
			<path d="M396.601,150.591c-2.723-7.823-11.271-11.962-19.096-9.239l-46,16c-7.824,2.721-11.961,11.271-9.239,19.095
				c2.153,6.193,7.959,10.076,14.167,10.076c1.635,0,3.297-0.271,4.93-0.837l46-16C395.186,166.965,399.323,158.415,396.601,150.591
				z"/>
			<path d="M70.643,157.351l-46-16c-7.825-2.726-16.373,1.415-19.095,9.239c-2.722,7.824,1.415,16.374,9.24,19.095l46,16
				c1.631,0.568,3.293,0.837,4.928,0.837c6.207,0,12.013-3.883,14.167-10.076C82.604,168.622,78.467,160.072,70.643,157.351z"/>
		</g>
	</g>
</g>
</svg>